<mxfile host="app.diagrams.net" modified="2022-03-10T13:37:54.612Z" agent="5.0 (Windows NT 10.0; Win64; x64) AppleWebKit/537.36 (KHTML, like Gecko) Chrome/99.0.4844.51 Safari/537.36 Edg/99.0.1150.36" etag="vznq4oi-AfJHlsNtrn2g" version="17.1.0" type="github">
  <diagram id="C5RBs43oDa-KdzZeNtuy" name="Page-1">
    <mxGraphModel dx="868" dy="482" grid="1" gridSize="10" guides="1" tooltips="1" connect="1" arrows="1" fold="1" page="1" pageScale="1" pageWidth="827" pageHeight="1169" math="0" shadow="0">
      <root>
        <mxCell id="WIyWlLk6GJQsqaUBKTNV-0" />
        <mxCell id="WIyWlLk6GJQsqaUBKTNV-1" parent="WIyWlLk6GJQsqaUBKTNV-0" />
        <mxCell id="aqdgh_XbJN4t8l2OBfXj-4" value="" style="edgeStyle=orthogonalEdgeStyle;rounded=0;orthogonalLoop=1;jettySize=auto;html=1;exitX=1;exitY=0.5;exitDx=0;exitDy=0;" edge="1" parent="WIyWlLk6GJQsqaUBKTNV-1" source="aqdgh_XbJN4t8l2OBfXj-9" target="aqdgh_XbJN4t8l2OBfXj-3">
          <mxGeometry relative="1" as="geometry">
            <mxPoint x="230" y="300" as="sourcePoint" />
          </mxGeometry>
        </mxCell>
        <mxCell id="aqdgh_XbJN4t8l2OBfXj-25" style="edgeStyle=orthogonalEdgeStyle;rounded=0;orthogonalLoop=1;jettySize=auto;html=1;entryX=0;entryY=0.5;entryDx=0;entryDy=0;" edge="1" parent="WIyWlLk6GJQsqaUBKTNV-1" source="aqdgh_XbJN4t8l2OBfXj-3" target="aqdgh_XbJN4t8l2OBfXj-16">
          <mxGeometry relative="1" as="geometry" />
        </mxCell>
        <mxCell id="aqdgh_XbJN4t8l2OBfXj-27" style="edgeStyle=orthogonalEdgeStyle;rounded=0;orthogonalLoop=1;jettySize=auto;html=1;entryX=0;entryY=0.5;entryDx=0;entryDy=0;" edge="1" parent="WIyWlLk6GJQsqaUBKTNV-1" source="aqdgh_XbJN4t8l2OBfXj-3" target="aqdgh_XbJN4t8l2OBfXj-6">
          <mxGeometry relative="1" as="geometry" />
        </mxCell>
        <mxCell id="aqdgh_XbJN4t8l2OBfXj-3" value="Ler lista" style="rhombus;whiteSpace=wrap;html=1;rounded=0;" vertex="1" parent="WIyWlLk6GJQsqaUBKTNV-1">
          <mxGeometry x="230" y="175" width="130" height="110" as="geometry" />
        </mxCell>
        <mxCell id="aqdgh_XbJN4t8l2OBfXj-20" value="" style="edgeStyle=orthogonalEdgeStyle;rounded=0;orthogonalLoop=1;jettySize=auto;html=1;" edge="1" parent="WIyWlLk6GJQsqaUBKTNV-1" source="aqdgh_XbJN4t8l2OBfXj-6" target="aqdgh_XbJN4t8l2OBfXj-19">
          <mxGeometry relative="1" as="geometry" />
        </mxCell>
        <mxCell id="aqdgh_XbJN4t8l2OBfXj-6" value="&amp;nbsp;Acima de 50 mil" style="rounded=1;whiteSpace=wrap;html=1;" vertex="1" parent="WIyWlLk6GJQsqaUBKTNV-1">
          <mxGeometry x="350" y="290" width="100" height="40" as="geometry" />
        </mxCell>
        <mxCell id="aqdgh_XbJN4t8l2OBfXj-9" value="&lt;span&gt;Dar preferência&lt;/span&gt;&lt;br&gt;&lt;span&gt;por mês mais recente&lt;/span&gt;" style="rounded=0;whiteSpace=wrap;html=1;" vertex="1" parent="WIyWlLk6GJQsqaUBKTNV-1">
          <mxGeometry x="50" y="200" width="120" height="60" as="geometry" />
        </mxCell>
        <mxCell id="aqdgh_XbJN4t8l2OBfXj-23" value="" style="edgeStyle=orthogonalEdgeStyle;rounded=0;orthogonalLoop=1;jettySize=auto;html=1;" edge="1" parent="WIyWlLk6GJQsqaUBKTNV-1" source="aqdgh_XbJN4t8l2OBfXj-13" target="aqdgh_XbJN4t8l2OBfXj-9">
          <mxGeometry relative="1" as="geometry" />
        </mxCell>
        <mxCell id="aqdgh_XbJN4t8l2OBfXj-13" value="Entrada das listas" style="shape=document;whiteSpace=wrap;html=1;boundedLbl=1;" vertex="1" parent="WIyWlLk6GJQsqaUBKTNV-1">
          <mxGeometry x="50" y="80" width="120" height="80" as="geometry" />
        </mxCell>
        <mxCell id="aqdgh_XbJN4t8l2OBfXj-22" value="" style="edgeStyle=orthogonalEdgeStyle;rounded=0;orthogonalLoop=1;jettySize=auto;html=1;" edge="1" parent="WIyWlLk6GJQsqaUBKTNV-1" source="aqdgh_XbJN4t8l2OBfXj-16" target="aqdgh_XbJN4t8l2OBfXj-21">
          <mxGeometry relative="1" as="geometry" />
        </mxCell>
        <mxCell id="aqdgh_XbJN4t8l2OBfXj-16" value="Abaixo de 50 mil" style="rounded=1;whiteSpace=wrap;html=1;" vertex="1" parent="WIyWlLk6GJQsqaUBKTNV-1">
          <mxGeometry x="355" y="120" width="110" height="40" as="geometry" />
        </mxCell>
        <mxCell id="aqdgh_XbJN4t8l2OBfXj-19" value="Parar" style="rounded=1;whiteSpace=wrap;html=1;" vertex="1" parent="WIyWlLk6GJQsqaUBKTNV-1">
          <mxGeometry x="500" y="290" width="80" height="40" as="geometry" />
        </mxCell>
        <mxCell id="aqdgh_XbJN4t8l2OBfXj-29" value="" style="edgeStyle=orthogonalEdgeStyle;rounded=0;orthogonalLoop=1;jettySize=auto;html=1;" edge="1" parent="WIyWlLk6GJQsqaUBKTNV-1" source="aqdgh_XbJN4t8l2OBfXj-21" target="aqdgh_XbJN4t8l2OBfXj-28">
          <mxGeometry relative="1" as="geometry" />
        </mxCell>
        <mxCell id="aqdgh_XbJN4t8l2OBfXj-21" value="Continuar lendo" style="whiteSpace=wrap;html=1;rounded=1;" vertex="1" parent="WIyWlLk6GJQsqaUBKTNV-1">
          <mxGeometry x="500" y="120" width="95" height="40" as="geometry" />
        </mxCell>
        <mxCell id="aqdgh_XbJN4t8l2OBfXj-31" value="" style="edgeStyle=orthogonalEdgeStyle;rounded=0;orthogonalLoop=1;jettySize=auto;html=1;" edge="1" parent="WIyWlLk6GJQsqaUBKTNV-1" source="aqdgh_XbJN4t8l2OBfXj-28" target="aqdgh_XbJN4t8l2OBfXj-30">
          <mxGeometry relative="1" as="geometry" />
        </mxCell>
        <mxCell id="aqdgh_XbJN4t8l2OBfXj-28" value="identificar funcionário" style="whiteSpace=wrap;html=1;rounded=1;" vertex="1" parent="WIyWlLk6GJQsqaUBKTNV-1">
          <mxGeometry x="630" y="120" width="120" height="40" as="geometry" />
        </mxCell>
        <mxCell id="aqdgh_XbJN4t8l2OBfXj-30" value="Enviar sms" style="whiteSpace=wrap;html=1;rounded=1;" vertex="1" parent="WIyWlLk6GJQsqaUBKTNV-1">
          <mxGeometry x="630" y="190" width="120" height="30" as="geometry" />
        </mxCell>
      </root>
    </mxGraphModel>
  </diagram>
</mxfile>
